<svg xmlns="http://www.w3.org/2000/svg" version="1.1" id="Layer_1" x="0" y="0" viewBox="0 0 376.307 376.307" xml:space="preserve" width="512" height="512"><path d="M305.39 0H70.853C53.527 0 39.499 14.093 39.499 31.354v313.6c0 17.325 14.093 31.354 31.354 31.354h234.602c17.325 0 31.354-14.093 31.354-31.354V31.418C336.808 14.093 322.715 0 305.39 0zm10.473 344.954c0 5.818-4.719 10.408-10.408 10.408H70.853c-5.818 0-10.408-4.719-10.408-10.408V31.418c0-5.818 4.719-10.408 10.408-10.408h234.602c5.818 0 10.408 4.719 10.408 10.408v313.536z" data-original="#000000" class="active-path" data-old_color="#000000" fill="#C81217"/><path d="M286.901 39.499H89.341c-5.818 0-10.408 4.719-10.408 10.408v59.216c0 5.818 4.719 10.408 10.408 10.408h197.43c5.818 0 10.408-4.719 10.408-10.408V49.907c.13-5.689-4.589-10.408-10.278-10.408zM276.364 98.78H99.879V60.444h176.485V98.78zm-167.241 42.86c-16.614 0-30.19 13.511-30.19 30.19 0 16.679 13.511 30.19 30.19 30.19 16.679 0 30.19-13.511 30.19-30.19.065-16.614-13.576-30.19-30.19-30.19zm0 39.499c-5.107 0-9.244-4.202-9.244-9.244s4.202-9.244 9.244-9.244 9.244 4.202 9.244 9.244-4.137 9.244-9.244 9.244zm78.998-39.499c-16.679 0-30.19 13.511-30.19 30.19 0 16.679 13.511 30.19 30.19 30.19 16.614 0 30.19-13.511 30.19-30.19 0-16.614-13.576-30.19-30.19-30.19zm0 39.499c-5.107 0-9.244-4.202-9.244-9.244s4.202-9.244 9.244-9.244 9.244 4.202 9.244 9.244-4.137 9.244-9.244 9.244zm78.998-39.499c-16.679 0-30.19 13.511-30.19 30.19 0 16.679 13.511 30.19 30.19 30.19 16.614 0 30.19-13.511 30.19-30.19 0-16.614-13.576-30.19-30.19-30.19zm0 39.499c-5.107 0-9.244-4.202-9.244-9.244s4.202-9.244 9.244-9.244 9.244 4.202 9.244 9.244-4.201 9.244-9.244 9.244zm-157.996 29.608c-16.614 0-30.19 13.511-30.19 30.19 0 16.614 13.511 30.19 30.19 30.19 16.679 0 30.19-13.511 30.19-30.19 0-16.678-13.576-30.19-30.19-30.19zm0 39.499c-5.107 0-9.244-4.202-9.244-9.244s4.202-9.244 9.244-9.244 9.244 4.202 9.244 9.244-4.137 9.244-9.244 9.244zm78.998-39.499c-16.679 0-30.19 13.511-30.19 30.19 0 16.614 13.511 30.19 30.19 30.19 16.614 0 30.19-13.511 30.19-30.19 0-16.678-13.576-30.19-30.19-30.19zm0 39.499c-5.107 0-9.244-4.202-9.244-9.244s4.202-9.244 9.244-9.244 9.244 4.202 9.244 9.244-4.137 9.244-9.244 9.244zm78.998-39.499c-16.679 0-30.19 13.511-30.19 30.19 0 16.614 13.511 30.19 30.19 30.19 16.614 0 30.19-13.511 30.19-30.19 0-16.678-13.576-30.19-30.19-30.19zm0 39.499c-5.107 0-9.244-4.202-9.244-9.244s4.202-9.244 9.244-9.244 9.244 4.202 9.244 9.244-4.201 9.244-9.244 9.244zm-157.996 29.609c-16.614 0-30.19 13.511-30.19 30.19s13.511 30.19 30.19 30.19c16.679 0 30.19-13.511 30.19-30.19.065-16.615-13.576-30.19-30.19-30.19zm0 39.434c-5.107 0-9.244-4.202-9.244-9.244 0-5.107 4.202-9.244 9.244-9.244s9.244 4.202 9.244 9.244-4.137 9.244-9.244 9.244zm78.998-39.434c-16.679 0-30.19 13.511-30.19 30.19s13.511 30.19 30.19 30.19c16.614 0 30.19-13.511 30.19-30.19 0-16.615-13.576-30.19-30.19-30.19zm0 39.434c-5.107 0-9.244-4.202-9.244-9.244 0-5.107 4.202-9.244 9.244-9.244s9.244 4.202 9.244 9.244-4.137 9.244-9.244 9.244zm78.998-39.434c-16.679 0-30.19 13.511-30.19 30.19s13.511 30.19 30.19 30.19c16.614 0 30.19-13.511 30.19-30.19 0-16.615-13.576-30.19-30.19-30.19zm0 39.434c-5.107 0-9.244-4.202-9.244-9.244 0-5.107 4.202-9.244 9.244-9.244s9.244 4.202 9.244 9.244-4.201 9.244-9.244 9.244z" data-original="#000000" class="active-path" data-old_color="#000000" fill="#C81217"/></svg>