<svg xmlns="http://www.w3.org/2000/svg" version="1.1" id="Capa_1" x="0" y="0" viewBox="0 0 474.547 474.547" xml:space="preserve" width="512" height="512"><path d="M469.094 196.424v-7.005a29.032 29.032 0 0 0-10.04-21.967l-43.217-37.399a29.14 29.14 0 0 0-19.06-7.101H294.063a29.292 29.292 0 0 0-17.637 5.947l-42.243 32.141-55.835 9.907c-7.892 1.396-14.92 6.059-19.286 12.8l-2.91 4.502a34.857 34.857 0 0 0-5.611 18.991c0 4.958 1.03 9.773 3.067 14.328a34.788 34.788 0 0 0 8.668 11.804l3.924 3.484a32.48 32.48 0 0 0 21.603 8.215h8.933a38.242 38.242 0 0 0 12.696 14.071H144v-131.99a9 9 0 0 0-9-9H37.5a9 9 0 0 0-8.686 6.643l-28.5 105A8.977 8.977 0 0 0 0 232.152v71.99a9 9 0 0 0 9 9h26.891a38.19 38.19 0 0 0-.374 5.271c0 20.943 17.039 37.981 37.982 37.981 20.943 0 37.981-17.039 37.981-37.981a38.19 38.19 0 0 0-.374-5.271h152.842a38.19 38.19 0 0 0-.374 5.271c0 20.943 17.039 37.981 37.982 37.981s37.981-17.039 37.981-37.981a38.19 38.19 0 0 0-.374-5.271h11.268a38.19 38.19 0 0 0-.374 5.271c0 20.943 17.039 37.981 37.982 37.981s37.981-17.039 37.981-37.981a38.19 38.19 0 0 0-.374-5.271h15.332a9 9 0 0 0 9-9v-36a9 9 0 0 0-9-9h-16.923a38.242 38.242 0 0 0 12.696-14.071h4.53c10.509 0 20.623-4.966 27.053-13.283a29.877 29.877 0 0 0 6.212-18.188 29.659 29.659 0 0 0-5.452-17.176zm-45.558-35.904h-17.647l-4.806-18.69a11.116 11.116 0 0 1 2.975 1.834l19.478 16.856zm-36.233 0h-47.948l4.473-19.569h38.443l5.032 19.569zm-99.977-17.297a11.186 11.186 0 0 1 6.737-2.272h31.301l-4.473 19.569h-56.299l22.734-17.297zm-76.921 84.26c0-11.018 8.964-19.981 19.981-19.981s19.981 8.964 19.981 19.981c0 11.018-8.964 19.982-19.981 19.982s-19.981-8.964-19.981-19.982zM44.383 136.152h33.615v72.201l-56.453 11.942 22.838-84.143zm29.116 202.243c-11.018 0-19.982-8.964-19.982-19.981 0-11.018 8.964-19.982 19.982-19.982 11.018 0 19.981 8.964 19.981 19.982 0 11.017-8.964 19.981-19.981 19.981zm0-57.964c-12.18 0-23.031 5.769-29.986 14.711H18v-25.496h15c4.971 0 9-4.029 9-9s-4.029-9-9-9H18v-12.203l70.86-14.99a8.999 8.999 0 0 0 7.137-8.805v-79.496H126l-.005 158.99h-22.511c-6.955-8.942-17.806-14.711-29.985-14.711zm228.058 57.964c-11.019 0-19.982-8.964-19.982-19.981 0-11.018 8.964-19.982 19.982-19.982 11.018 0 19.981 8.964 19.981 19.982 0 11.017-8.964 19.981-19.981 19.981zm86.483 0c-11.019 0-19.982-8.964-19.982-19.981 0-11.018 8.964-19.982 19.982-19.982 11.018 0 19.981 8.964 19.981 19.982 0 11.017-8.963 19.981-19.981 19.981zm43.939-43.253h-13.954c-6.955-8.942-17.806-14.711-29.986-14.711s-23.031 5.769-29.986 14.711h-26.511c-6.955-8.942-17.806-14.711-29.986-14.711s-23.031 5.769-29.986 14.711H143.995v-18h287.984v18zm-180.64-36a38.25 38.25 0 0 0 12.696-14.071h105.42a38.242 38.242 0 0 0 12.696 14.071H251.339zm131.783-31.659c0-11.018 8.964-19.981 19.981-19.981 11.019 0 19.982 8.964 19.982 19.981 0 11.018-8.964 19.982-19.982 19.982-11.017 0-19.981-8.964-19.981-19.982zm70.974-6.707c-3.047 3.941-7.837 6.294-12.813 6.294h-.207c-.223-20.753-17.167-37.569-37.972-37.569s-37.748 16.816-37.971 37.569h-96.775c-.223-20.753-17.166-37.569-37.971-37.569-20.804 0-37.748 16.816-37.971 37.569h-4.611a14.505 14.505 0 0 1-9.647-3.671l-3.922-3.482a16.955 16.955 0 0 1-3.09-3.678h7.347c4.971 0 9-4.029 9-9s-4.029-9-9-9h-7.355c.044-.07.082-.144.128-.213l2.91-4.502a11.024 11.024 0 0 1 7.312-4.853l57.203-10.15h205.645l2.938 2.543a11.039 11.039 0 0 1 3.819 8.355v10.157c0 2.252.845 4.423 2.367 6.083a11.714 11.714 0 0 1 3.086 7.94 11.626 11.626 0 0 1-2.45 7.177z" data-original="#000000" class="active-path" data-old_color="#000000" fill="#C81217"/></svg>