<svg xmlns="http://www.w3.org/2000/svg" version="1.1" id="Capa_1" x="0" y="0" viewBox="0 0 422.948 422.948" xml:space="preserve" width="512" height="512"><path d="M377.728 227.722h-22.089a21.93 21.93 0 0 0 .354-3.895v-16.669c7.443-6.523 12.648-15.604 14.116-25.951l5.583-39.364c1.69-11.918-2.382-24.115-10.894-32.626l-12.53-12.53 11.742-1.418c9.785-1.182 17.163-9.506 17.163-19.362 0-10.754-8.749-19.502-19.502-19.502h-11.889c-6.397 0-12.067 3.11-15.626 7.883l-14.48-31.697c-6.505-14.248-19.503-24.844-34.771-28.344-24.706-5.662-122.157-5.662-146.864 0-15.267 3.5-28.265 14.096-34.769 28.342l-14.48 31.697c-3.559-4.772-9.229-7.881-15.625-7.881h-11.89c-10.753 0-19.502 8.749-19.502 19.502 0 9.856 7.379 18.179 17.164 19.362l11.741 1.418-12.531 12.53c-8.511 8.511-12.583 20.708-10.894 32.626l5.584 39.364c1.467 10.346 6.671 19.426 14.112 25.948v16.672c0 1.33.126 2.63.354 3.895H45.221a9 9 0 0 0-9 9v35.028a9 9 0 0 0 9 9h124.255v25.68a9 9 0 0 0 9 9h9.836v98.518c0 4.971 4.029 9 9 9s9-4.029 9-9V315.43h10.33v98.518c0 4.971 4.029 9 9 9s9-4.029 9-9V315.43h9.831a9 9 0 0 0 9-9v-25.68h124.255a9 9 0 0 0 9-9v-35.028a9 9 0 0 0-9-9zm-39.736-3.895a3.9 3.9 0 0 1-3.895 3.895h-31.973a3.9 3.9 0 0 1-3.895-3.895v-6.074h29.782c3.423 0 6.765-.422 9.979-1.208v7.282zM71.743 183.15h279.464c-3.34 9.72-12.62 16.603-23.194 16.603H94.936c-10.575 0-19.854-6.882-23.193-16.603zm18.705-80.774H332.5l19.57 19.57c2.672 2.672 4.514 6.028 5.398 9.631H65.481c.884-3.604 2.726-6.96 5.398-9.631l19.569-19.57zm218.119 62.774l-4.865-15.574h52.712l-2.209 15.574h-45.638zm-23.724-15.573l4.865 15.574H133.24l4.866-15.574h146.737zm-165.596 0l-4.866 15.574H68.744l-2.209-15.574h52.712zm23.476 68.176H280.23v6.074c0 1.33.126 2.63.354 3.895H142.369a21.93 21.93 0 0 0 .354-3.895v-6.074zM348.28 75.907c0-.828.674-1.502 1.502-1.502h11.889a1.503 1.503 0 1 1 .181 2.993l-13.571 1.639v-3.13zM119.647 40.066c4.193-9.187 12.574-16.019 22.416-18.275 22.057-5.055 116.767-5.054 138.821 0 9.843 2.257 18.224 9.088 22.418 18.277l20.244 44.307H99.405l20.242-44.309zM59.775 75.907c0-.828.674-1.502 1.502-1.502h11.889c.829 0 1.503.674 1.503 1.502v3.131l-13.571-1.639a1.504 1.504 0 0 1-1.323-1.492zm25.178 147.92v-7.283a41.996 41.996 0 0 0 9.982 1.209h29.787v6.074a3.9 3.9 0 0 1-3.895 3.895H88.849a3.9 3.9 0 0 1-3.896-3.895zm150.52 73.603h-47.997v-16.68h47.997v16.68zm133.255-34.68H54.221v-17.028h314.507v17.028z" data-original="#000000" class="active-path" data-old_color="#000000" fill="#C81217"/><path d="M337.523 293.605a8.997 8.997 0 0 0-15.588 0l-34.281 59.375a8.999 8.999 0 0 0 7.794 13.5h8.782v47.468c0 4.971 4.029 9 9 9s9-4.029 9-9V357.48a9 9 0 0 0-9-9h-2.193l18.692-32.375 18.691 32.375h-2.192a9 9 0 0 0-9 9v56.468c0 4.971 4.029 9 9 9s9-4.029 9-9V366.48h8.781a8.999 8.999 0 1 0 7.794-13.5l-34.28-59.375zm-235.488 0a8.997 8.997 0 0 0-15.588 0l-34.28 59.375a8.999 8.999 0 0 0 7.794 13.5h8.781v47.468c0 4.971 4.029 9 9 9s9-4.029 9-9V357.48a9 9 0 0 0-9-9H75.55l18.691-32.375 18.691 32.375h-2.192a9 9 0 0 0-9 9v56.468c0 4.971 4.029 9 9 9s9-4.029 9-9V366.48h8.781a8.999 8.999 0 1 0 7.794-13.5l-34.28-59.375z" data-original="#000000" class="active-path" data-old_color="#000000" fill="#C81217"/></svg>