<svg xmlns="http://www.w3.org/2000/svg" height="512" width="512"><path d="M509.055 150.672L401.94 6.07A15.012 15.012 0 0 0 389.887 0a14.993 14.993 0 0 0-12.051 6.07L270.723 150.672a14.996 14.996 0 0 0-1.34 15.676 15 15 0 0 0 13.394 8.254h38.555v72.5A54.784 54.784 0 0 0 296.164 241h-26.777c-30.418 0-55.164 24.746-55.164 55.164v31.27a54.796 54.796 0 0 0-25.168-6.102h-26.778c-30.418 0-55.164 24.75-55.164 55.168v31.266a54.857 54.857 0 0 0-25.168-6.102h-26.78C24.745 401.664 0 426.414 0 456.832V497c0 8.285 6.715 15 15 15h428.441c8.286 0 15-6.715 15-15V174.602H497a15 15 0 0 0 13.395-8.254 14.996 14.996 0 0 0-1.34-15.676zM30 456.832c0-13.875 11.29-25.168 25.164-25.168h26.777c13.88 0 25.168 11.293 25.168 25.168V482H30zm107.11 0V376.5c0-13.879 11.288-25.168 25.167-25.168h26.778c13.875 0 25.164 11.29 25.164 25.168V482h-77.11zM244.222 376.5v-80.336c0-13.875 11.289-25.164 25.164-25.164h26.777c13.875 0 25.168 11.29 25.168 25.164V482h-77.11zM443.44 144.602c-8.285 0-15 6.714-15 15V482h-77.109V159.602c0-8.286-6.719-15-15-15h-23.777l77.332-104.403 77.336 104.403zm0 0" data-original="#000000" class="active-path" data-old_color="#000000" fill="#C81217" id="surface1"/></svg>