<svg xmlns="http://www.w3.org/2000/svg" id="Capa_1" height="512" width="512"><path d="M481 226.309v-90.318c0-4.058-1.677-7.889-4.396-10.609l-89.995-89.995A15.069 15.069 0 0 0 376 30.991H15c-8.284 0-15 6.716-15 15v361c0 8.284 6.716 15 15 15h362v44c0 12.065 13.575 19.197 23.51 12.353L437 453.206l36.49 25.138c9.906 6.823 23.51-.24 23.51-12.353V331.939c24.984-33.266 18.157-80.795-16-105.63zm-44 105.682c-24.813 0-45-20.187-45-45s20.187-45 45-45 45 20.187 45 45-20.187 45-45 45zM391 82.204l38.787 38.787H391zM30 391.991v-331h331v75c0 8.284 6.716 15 15 15h75v62.33c-46.485-8.816-89 27.024-89 73.67 0 16.848 5.586 32.413 15 44.948v60.052zm415.51 30.647a15.004 15.004 0 0 0-17.02 0L407 437.443V355.71c18.627 8.164 40.405 8.588 60 0v81.733z" data-original="#000000" class="active-path" data-old_color="#000000" fill="#C81217"/><path d="M91 150.991h15v16c0 8.284 6.716 15 15 15s15-6.716 15-15v-16h15c8.284 0 15-6.716 15-15s-6.716-15-15-15h-15v-14c0-8.284-6.716-15-15-15s-15 6.716-15 15v14H91c-8.284 0-15 6.716-15 15s6.716 15 15 15zm225 121H91c-8.284 0-15 6.716-15 15s6.716 15 15 15h225c8.284 0 15-6.716 15-15s-6.716-15-15-15zm0-60H91c-8.284 0-15 6.716-15 15s6.716 15 15 15h225c8.284 0 15-6.716 15-15s-6.716-15-15-15zm0 120H91c-8.284 0-15 6.716-15 15s6.716 15 15 15h225c8.284 0 15-6.716 15-15s-6.716-15-15-15z" data-original="#000000" class="active-path" data-old_color="#000000" fill="#C81217"/></svg>