<svg xmlns="http://www.w3.org/2000/svg" version="1.1" id="Capa_1" x="0" y="0" viewBox="0 0 469.342 469.342" xml:space="preserve" width="512" height="512"><path d="M165.337 128h37.333c5.896 0 10.667-4.771 10.667-10.667s-4.771-10.667-10.667-10.667h-21.333V96c0-5.896-4.771-10.667-10.667-10.667S160.004 90.104 160.004 96v11.206c-18.046 2.615-32 18.036-32 36.794 0 20.583 16.75 37.333 37.333 37.333h10.667c8.813 0 16 7.177 16 16s-7.188 16-16 16h-37.333A10.66 10.66 0 0 0 128.004 224a10.66 10.66 0 0 0 10.667 10.667h10.667v10.667a10.66 10.66 0 0 0 10.667 10.667 10.66 10.66 0 0 0 10.667-10.667v-10.667h5.333c20.583 0 37.333-16.75 37.333-37.333s-16.75-37.333-37.333-37.333h-10.667c-8.813 0-16-7.177-16-16-.001-8.824 7.187-16.001 15.999-16.001z" data-original="#000000" class="active-path" data-old_color="#000000" fill="#C81217"/><path d="M465.817 365.406L326.278 239.82c9.813-21.952 15.06-45.124 15.06-69.154C341.337 76.563 264.775 0 170.671 0S.004 76.563.004 170.667s76.563 170.667 170.667 170.667c21.917 0 43.699-4.466 64-12.695v130.029a10.67 10.67 0 0 0 6.583 9.854 10.628 10.628 0 0 0 11.646-2.323l54.917-55.073 28.271 52.594c1.917 3.573 5.604 5.615 9.396 5.615 1.625 0 3.25-.365 4.771-1.135l50.063-25.094a10.592 10.592 0 0 0 5.417-6.365 10.712 10.712 0 0 0-.833-8.313L380.421 384h78.25c4.417 0 8.375-2.719 9.958-6.844a10.684 10.684 0 0 0-2.812-11.75zm-231.146-60.133c-19.975 9.504-41.895 14.727-64 14.727-82.333 0-149.333-66.99-149.333-149.333s67-149.333 149.333-149.333 149.333 66.99 149.333 149.333c0 18.695-3.603 36.82-10.418 54.132l-17.41-15.668c4.001-12.553 6.495-25.405 6.495-38.464 0-70.583-57.417-128-128-128s-128 57.417-128 128 57.417 128 128 128c22.565 0 44.648-6.07 64-17.237v23.843zm17.812-131.867a10.683 10.683 0 0 0-11.479-1.813 10.654 10.654 0 0 0-6.333 9.74v74.284c-18.415 13.872-40.852 21.716-64 21.716-58.812 0-106.667-47.854-106.667-106.667S111.858 64 170.671 64s106.667 47.854 106.667 106.667c0 7.629-1.094 15.171-2.75 22.634l-22.105-19.895zm109.896 189.261c-3.771 0-7.271 1.99-9.188 5.24a10.693 10.693 0 0 0-.167 10.573l27.833 50.531-30.896 15.479-30.146-56.125a10.668 10.668 0 0 0-7.854-5.5 10.621 10.621 0 0 0-9.084 3.02l-46.875 46.979V205.281l174.875 157.385h-68.498z" data-original="#000000" class="active-path" data-old_color="#000000" fill="#C81217"/></svg>