<svg xmlns="http://www.w3.org/2000/svg" version="1.1" id="Capa_1" x="0" y="0" viewBox="0 0 470.64 470.64" xml:space="preserve" width="512" height="512"><path d="M425.665 241.028l24.036-2.903c11.937-1.441 20.938-11.595 20.938-23.619 0-13.118-10.672-23.791-23.791-23.791h-16.744c-10.232 0-18.975 6.493-22.327 15.575l-23.418-51.259c-8.688-19.039-26.052-33.194-46.452-37.867a81.749 81.749 0 0 0-3.066-.633c-1.964-53.201-45.85-95.879-99.523-95.879-53.673 0-97.559 42.677-99.523 95.879a81.065 81.065 0 0 0-3.075.634c-20.397 4.675-37.76 18.831-46.448 37.87l-23.417 51.247c-3.355-9.077-12.095-15.566-22.324-15.566h-16.74C10.672 190.715 0 201.387 0 214.505c0 12.024 9.001 22.178 20.938 23.619l24.037 2.903-22.989 22.989C10.811 275.191 5.465 291.203 7.684 306.85l7.863 55.439c2.021 14.249 9.408 26.675 19.912 35.361v25.179c0 14.976 12.184 27.16 27.16 27.16h45.039c14.976 0 27.16-12.184 27.16-27.16V410.6h201.009v12.229c0 14.976 12.184 27.16 27.16 27.16h45.028c14.976 0 27.16-12.184 27.16-27.16v-25.176c10.506-8.685 17.895-21.113 19.916-35.364l7.863-55.439c2.219-15.646-3.127-31.659-14.302-42.833l-22.987-22.989zm-26.218 151.571H71.193c-18.192 0-33.927-13.07-37.458-30.733h403.17c-3.531 17.663-19.266 30.733-37.458 30.733zm-58.095-78.016l9.149 29.284h-12.466l-9.149-29.284h12.466zm-31.324 0l9.149 29.284H151.46l9.149-29.284h149.419zm-177.426 29.283H120.14l9.149-29.284h12.462l-9.149 29.284zm-31.32 0H31.114l-4.154-29.284h83.47l-9.148 29.284zm268.076 0l-9.149-29.284h83.47l-4.154 29.284h-70.167zm54.957-129.361a5.798 5.798 0 0 1 5.791-5.791h16.744a5.798 5.798 0 0 1 5.791 5.791 5.795 5.795 0 0 1-5.096 5.749l-23.229 2.806v-8.555zm-69.596-69.373c-5.558-.963-13.028-1.817-22.324-2.552a99.301 99.301 0 0 0 1.473-7.875l.026.006c7.728 1.769 14.853 5.406 20.825 10.421zM235.32 38.651c44.994 0 81.6 36.605 81.6 81.599s-36.605 81.6-81.6 81.6-81.6-36.605-81.6-81.6 36.606-81.599 81.6-81.599zm-98.581 96.059l.034-.007a98.715 98.715 0 0 0 1.472 7.873c-9.321.741-16.792 1.597-22.326 2.557 5.971-5.015 13.095-8.652 20.82-10.423zm-37.153 34.512c5.565-2.82 11.585-4.865 17.942-6.088 5.711-1.102 14.823-2.108 26.561-2.946 15.422 35.092 50.508 59.661 91.231 59.661 40.721 0 75.806-24.568 91.229-59.656 11.71.829 20.827 1.834 26.574 2.941 6.349 1.221 12.369 3.269 17.94 6.093l27.814 60.879H71.77l27.816-60.884zM18 214.505a5.798 5.798 0 0 1 5.791-5.791h16.744a5.798 5.798 0 0 1 5.791 5.791v8.555l-23.229-2.806A5.795 5.795 0 0 1 18 214.505zm45.351 33.602h343.938l28.638 28.637c5.349 5.35 8.619 12.422 9.36 19.838H25.353c.741-7.416 4.011-14.489 9.36-19.838l28.638-28.637zm53.468 174.722c0 5.051-4.109 9.16-9.16 9.16H62.62c-5.051 0-9.16-4.109-9.16-9.16V407.69a55.53 55.53 0 0 0 17.734 2.909h45.625v12.23zm300.358 0c0 5.051-4.109 9.16-9.16 9.16h-45.028c-5.051 0-9.16-4.109-9.16-9.16V410.6h45.619c6.16 0 12.127-1.022 17.73-2.907v15.136z" data-original="#000000" class="active-path" data-old_color="#000000" fill="#C81217"/><path d="M220.22 173.022a9 9 0 0 0 16.395-1.604l32.999-100.495a9 9 0 0 0-17.101-5.615l-26.623 81.078-16.98-30.186c-2.437-4.332-7.925-5.869-12.256-3.432a9 9 0 0 0-3.432 12.257l26.998 47.997z" data-original="#000000" class="active-path" data-old_color="#000000" fill="#C81217"/></svg>