<svg xmlns="http://www.w3.org/2000/svg" id="Layer_1" height="512" viewBox="0 0 507.246 507.246" width="512"><path d="M457.262 89.821c-2.734-35.285-32.298-63.165-68.271-63.165H68.5c-37.771 0-68.5 30.729-68.5 68.5V412.09c0 37.771 30.729 68.5 68.5 68.5h370.247c37.771 0 68.5-30.729 68.5-68.5V155.757c-.001-31.354-21.184-57.836-49.985-65.936zM68.5 58.656h320.492c17.414 0 32.008 12.261 35.629 28.602H68.5c-13.411 0-25.924 3.889-36.5 10.577v-2.679c0-20.126 16.374-36.5 36.5-36.5zM438.746 448.59H68.5c-20.126 0-36.5-16.374-36.5-36.5V155.757c0-20.126 16.374-36.5 36.5-36.5h370.247c20.126 0 36.5 16.374 36.5 36.5v55.838H373.221c-40.43 0-73.322 32.893-73.322 73.323s32.893 73.323 73.322 73.323h102.025v53.849c0 20.126-16.374 36.5-36.5 36.5zm36.5-122.349H373.221c-22.785 0-41.322-18.537-41.322-41.323s18.537-41.323 41.322-41.323h102.025z" data-original="#000000" class="active-path" data-old_color="#000000" fill="#C12020"/><circle cx="379.16" cy="286.132" r="16.658" data-original="#000000" class="active-path" data-old_color="#000000" fill="#C12020"/></svg>