<svg version="1.1" id="Слой_4" xmlns="http://www.w3.org/2000/svg" x="0" y="0" viewBox="0 0 226.772 226.772" xml:space="preserve"><path d="M145.416 207.921h-.61v-4.968h-5.2v-.523h5.2v-1.539c0-1.715-1.162-2.761-2.891-2.761s-2.891 1.046-2.891 2.761v7.03h-.61v-6.842c0-2.208 1.38-3.501 3.501-3.501s3.501 1.293 3.501 3.501v6.842zm9.028-10.169v7.031c0 1.714 1.162 2.76 2.891 2.76s2.891-1.046 2.891-2.76v-7.031h.61v6.843c0 2.208-1.38 3.501-3.501 3.501s-3.501-1.293-3.501-3.501v-6.843h.61zm17.41 10.169h-.61v-9.646h-2.891v-.523h6.392v.523h-2.891v9.646zm8.837-5.084c0-2.876 2.266-5.259 5.156-5.259 2.892 0 5.187 2.383 5.187 5.259s-2.295 5.259-5.187 5.259c-2.89 0-5.156-2.383-5.156-5.259zm9.704 0c0-2.542-1.976-4.707-4.547-4.707-2.585 0-4.518 2.165-4.518 4.707s1.933 4.706 4.518 4.706c2.571 0 4.547-2.164 4.547-4.706z" fill="#202020" stroke="#202020" stroke-width=".5" stroke-miterlimit="10"/><path d="M169.08 157.94c-4.26 1.13-11.9 2.08-20.35 2.84l-95.51 2.36c1.64-5.2 4.92-12.82 11.56-19.73 9.43-9.82 23.05-15.52 39.91-16.35 13.28-.66 26.65-.87 39.8-2.64 14.99-2.03 24.52-14.65 24.02-29.66-.48-14.74-11.26-26.15-26.27-27.88-2.61-.3-5.21-.68-8.26-1.1V30.91c42.04-3.86 76.92 12.95 78.35 62.25.96 33.04-15.02 57.28-43.25 64.78z" fill="#202020"/><path d="M49.123 65.509H14.405V30.211H125.93v35.368H91.72v55.207c-18.121 4.151-32.737 12.464-42.597 28.725V65.509z" fill="#c10509"/><path d="M37.413 177.926v14.09h-6.985v-19.767h9.101c3.991 0 7.117.763 9.376 2.288 2.684 1.824 4.026 4.301 4.026 7.429 0 2.993-1.147 5.436-3.441 7.327-2.294 1.893-5.248 2.839-8.86 2.839-.424 0-1.118-.02-2.082-.059v-5.807h1.118c4.071 0 6.107-1.434 6.107-4.301 0-2.693-2.001-4.04-6.004-4.04h-2.356zm26.529-5.677v19.767h-6.985v-19.767h6.985zm15.656 5.677v14.09h-6.985v-14.09h-5.351v-5.677h17.669v5.677h-5.333zm17.17 4.171v5.213h-2.013v4.706H87.77v-12.569c0-2.433.788-4.322 2.365-5.669s3.793-2.021 6.649-2.021c2.753 0 4.789.61 6.107 1.832s1.979 3.106 1.979 5.654v12.772h-6.985v-12.381c0-.772-.109-1.309-.327-1.607-.218-.3-.608-.449-1.17-.449-1.09 0-1.634.686-1.634 2.057v2.462h2.014zm20.061-4.533v14.452h-6.984v-19.767h8.963c2.729 0 4.846.57 6.349 1.709 1.675 1.274 2.512 2.892 2.512 4.851 0 1.999-1.038 3.684-3.114 5.055l4.026 8.152h-7.329l-3.39-6.372v-5.082h.551c1.468 0 2.202-.531 2.202-1.593 0-.937-.849-1.405-2.546-1.405h-1.24zm20.656-5.315h6.985v11.744c0 .917.175 1.527.524 1.832.35.304 1.041.456 2.073.456h.361v5.734h-1.858c-2.546 0-4.53-.625-5.952-1.875-1.423-1.25-2.134-2.985-2.134-5.206v-12.685zm29.222 0v12.815c0 2.26-.8 4.064-2.399 5.416-1.601 1.352-3.73 2.027-6.392 2.027-2.649 0-4.677-.656-6.082-1.969-1.404-1.313-2.107-3.201-2.107-5.662v-12.628h6.985v12.613c0 1.207.51 1.81 1.531 1.81.986 0 1.479-.603 1.479-1.81v-12.613h6.985zm21.303 0l-6.107 9.615 6.313 10.151h-7.346l-2.891-4.793-2.443 4.793h-7.226l6.451-9.992-6.107-9.774h7.277l2.736 4.489 2.202-4.489h7.141z" fill="#202020"/></svg>