<?xml version="1.0"?>
<svg xmlns="http://www.w3.org/2000/svg" xmlns:xlink="http://www.w3.org/1999/xlink" version="1.1" id="Layer_1" x="0px" y="0px" viewBox="0 0 376.307 376.307" style="enable-background:new 0 0 376.307 376.307;" xml:space="preserve" width="512px" height="512px" class=""><g><g>
	<g>
		<path d="M305.39,0H70.853C53.527,0,39.499,14.093,39.499,31.354v313.6c0,17.325,14.093,31.354,31.354,31.354h234.602    c17.325,0,31.354-14.093,31.354-31.354V31.418C336.808,14.093,322.715,0,305.39,0z M315.863,344.954    c0,5.818-4.719,10.408-10.408,10.408H70.853c-5.818,0-10.408-4.719-10.408-10.408V31.418c0-5.818,4.719-10.408,10.408-10.408    h234.602c5.818,0,10.408,4.719,10.408,10.408V344.954z" data-original="#000000" class="active-path" data-old_color="#000000" fill="#C81217"/>
	</g>
</g><g>
	<g>
		<path d="M286.901,39.499H89.341c-5.818,0-10.408,4.719-10.408,10.408v59.216c0,5.818,4.719,10.408,10.408,10.408h197.43    c5.818,0,10.408-4.719,10.408-10.408V49.907C297.309,44.218,292.59,39.499,286.901,39.499z M276.364,98.78H99.879V60.444h176.485    V98.78z" data-original="#000000" class="active-path" data-old_color="#000000" fill="#C81217"/>
	</g>
</g><g>
	<g>
		<path d="M109.123,141.64c-16.614,0-30.19,13.511-30.19,30.19c0,16.679,13.511,30.19,30.19,30.19    c16.679,0,30.19-13.511,30.19-30.19C139.378,155.216,125.737,141.64,109.123,141.64z M109.123,181.139    c-5.107,0-9.244-4.202-9.244-9.244s4.202-9.244,9.244-9.244s9.244,4.202,9.244,9.244S114.23,181.139,109.123,181.139z" data-original="#000000" class="active-path" data-old_color="#000000" fill="#C81217"/>
	</g>
</g><g>
	<g>
		<path d="M188.121,141.64c-16.679,0-30.19,13.511-30.19,30.19c0,16.679,13.511,30.19,30.19,30.19    c16.614,0,30.19-13.511,30.19-30.19C218.311,155.216,204.735,141.64,188.121,141.64z M188.121,181.139    c-5.107,0-9.244-4.202-9.244-9.244s4.202-9.244,9.244-9.244s9.244,4.202,9.244,9.244S193.228,181.139,188.121,181.139z" data-original="#000000" class="active-path" data-old_color="#000000" fill="#C81217"/>
	</g>
</g><g>
	<g>
		<path d="M267.119,141.64c-16.679,0-30.19,13.511-30.19,30.19c0,16.679,13.511,30.19,30.19,30.19    c16.614,0,30.19-13.511,30.19-30.19C297.309,155.216,283.733,141.64,267.119,141.64z M267.119,181.139    c-5.107,0-9.244-4.202-9.244-9.244s4.202-9.244,9.244-9.244s9.244,4.202,9.244,9.244S272.162,181.139,267.119,181.139z" data-original="#000000" class="active-path" data-old_color="#000000" fill="#C81217"/>
	</g>
</g><g>
	<g>
		<path d="M109.123,210.747c-16.614,0-30.19,13.511-30.19,30.19c0,16.614,13.511,30.19,30.19,30.19    c16.679,0,30.19-13.511,30.19-30.19C139.313,224.259,125.737,210.747,109.123,210.747z M109.123,250.246    c-5.107,0-9.244-4.202-9.244-9.244s4.202-9.244,9.244-9.244s9.244,4.202,9.244,9.244S114.23,250.246,109.123,250.246z" data-original="#000000" class="active-path" data-old_color="#000000" fill="#C81217"/>
	</g>
</g><g>
	<g>
		<path d="M188.121,210.747c-16.679,0-30.19,13.511-30.19,30.19c0,16.614,13.511,30.19,30.19,30.19    c16.614,0,30.19-13.511,30.19-30.19C218.311,224.259,204.735,210.747,188.121,210.747z M188.121,250.246    c-5.107,0-9.244-4.202-9.244-9.244s4.202-9.244,9.244-9.244s9.244,4.202,9.244,9.244S193.228,250.246,188.121,250.246z" data-original="#000000" class="active-path" data-old_color="#000000" fill="#C81217"/>
	</g>
</g><g>
	<g>
		<path d="M267.119,210.747c-16.679,0-30.19,13.511-30.19,30.19c0,16.614,13.511,30.19,30.19,30.19    c16.614,0,30.19-13.511,30.19-30.19C297.309,224.259,283.733,210.747,267.119,210.747z M267.119,250.246    c-5.107,0-9.244-4.202-9.244-9.244s4.202-9.244,9.244-9.244s9.244,4.202,9.244,9.244S272.162,250.246,267.119,250.246z" data-original="#000000" class="active-path" data-old_color="#000000" fill="#C81217"/>
	</g>
</g><g>
	<g>
		<path d="M109.123,279.855c-16.614,0-30.19,13.511-30.19,30.19s13.511,30.19,30.19,30.19c16.679,0,30.19-13.511,30.19-30.19    C139.378,293.43,125.737,279.855,109.123,279.855z M109.123,319.289c-5.107,0-9.244-4.202-9.244-9.244    c0-5.107,4.202-9.244,9.244-9.244s9.244,4.202,9.244,9.244S114.23,319.289,109.123,319.289z" data-original="#000000" class="active-path" data-old_color="#000000" fill="#C81217"/>
	</g>
</g><g>
	<g>
		<path d="M188.121,279.855c-16.679,0-30.19,13.511-30.19,30.19s13.511,30.19,30.19,30.19c16.614,0,30.19-13.511,30.19-30.19    C218.311,293.43,204.735,279.855,188.121,279.855z M188.121,319.289c-5.107,0-9.244-4.202-9.244-9.244    c0-5.107,4.202-9.244,9.244-9.244s9.244,4.202,9.244,9.244S193.228,319.289,188.121,319.289z" data-original="#000000" class="active-path" data-old_color="#000000" fill="#C81217"/>
	</g>
</g><g>
	<g>
		<path d="M267.119,279.855c-16.679,0-30.19,13.511-30.19,30.19s13.511,30.19,30.19,30.19c16.614,0,30.19-13.511,30.19-30.19    C297.309,293.43,283.733,279.855,267.119,279.855z M267.119,319.289c-5.107,0-9.244-4.202-9.244-9.244    c0-5.107,4.202-9.244,9.244-9.244s9.244,4.202,9.244,9.244S272.162,319.289,267.119,319.289z" data-original="#000000" class="active-path" data-old_color="#000000" fill="#C81217"/>
	</g>
</g></g> </svg>
