<?xml version="1.0"?>
<svg xmlns="http://www.w3.org/2000/svg" height="512px" version="1.1" viewBox="0 0 512.00003 512" width="512px" class=""><g><g id="surface1">
<path d="M 509.054688 150.671875 L 401.941406 6.070312 C 399.109375 2.253906 394.640625 0 389.886719 0 C 385.132812 0 380.660156 2.253906 377.835938 6.070312 L 270.722656 150.671875 C 267.351562 155.222656 266.832031 161.289062 269.382812 166.347656 C 271.929688 171.40625 277.113281 174.601562 282.777344 174.601562 L 321.332031 174.601562 L 321.332031 247.101562 C 313.78125 243.210938 305.230469 241 296.164062 241 L 269.386719 241 C 238.96875 241 214.222656 265.746094 214.222656 296.164062 L 214.222656 327.433594 C 206.671875 323.542969 198.117188 321.332031 189.054688 321.332031 L 162.277344 321.332031 C 131.859375 321.332031 107.113281 346.082031 107.113281 376.5 L 107.113281 407.765625 C 99.558594 403.878906 91.007812 401.664062 81.945312 401.664062 L 55.164062 401.664062 C 24.746094 401.664062 0 426.414062 0 456.832031 L 0 497 C 0 505.285156 6.714844 512 15 512 L 443.441406 512 C 451.726562 512 458.441406 505.285156 458.441406 497 L 458.441406 174.601562 L 497 174.601562 C 502.664062 174.601562 507.847656 171.40625 510.394531 166.347656 C 512.945312 161.289062 512.425781 155.222656 509.054688 150.671875 Z M 30 456.832031 C 30 442.957031 41.289062 431.664062 55.164062 431.664062 L 81.941406 431.664062 C 95.820312 431.664062 107.109375 442.957031 107.109375 456.832031 L 107.109375 482 L 30 482 Z M 137.109375 456.832031 L 137.109375 376.5 C 137.109375 362.621094 148.398438 351.332031 162.277344 351.332031 L 189.054688 351.332031 C 202.929688 351.332031 214.21875 362.621094 214.21875 376.5 L 214.21875 482 L 137.109375 482 Z M 244.222656 376.5 L 244.222656 296.164062 C 244.222656 282.289062 255.511719 271 269.386719 271 L 296.164062 271 C 310.039062 271 321.332031 282.289062 321.332031 296.164062 L 321.332031 482 L 244.222656 482 Z M 443.441406 144.601562 C 435.15625 144.601562 428.441406 151.316406 428.441406 159.601562 L 428.441406 482 L 351.332031 482 L 351.332031 159.601562 C 351.332031 151.316406 344.613281 144.601562 336.332031 144.601562 L 312.554688 144.601562 L 389.886719 40.199219 L 467.222656 144.601562 Z M 443.441406 144.601562 " data-original="#000000" class="active-path" data-old_color="#000000" fill="#C81217"/>
</g></g> </svg>
