<?xml version="1.0"?>
<svg xmlns="http://www.w3.org/2000/svg" id="Capa_1" enable-background="new 0 0 512 512" height="512px" viewBox="0 0 512 512" width="512px"><g><g><path d="m481 226.309v-90.318c0-4.058-1.677-7.889-4.396-10.609l-89.995-89.995c-2.693-2.695-6.503-4.396-10.609-4.396h-361c-8.284 0-15 6.716-15 15v361c0 8.284 6.716 15 15 15h362v44c0 12.065 13.575 19.197 23.51 12.353l36.49-25.138 36.49 25.138c9.906 6.823 23.51-.24 23.51-12.353v-134.052c24.984-33.266 18.157-80.795-16-105.63zm-44 105.682c-24.813 0-45-20.187-45-45s20.187-45 45-45 45 20.187 45 45-20.187 45-45 45zm-46-249.787 38.787 38.787h-38.787zm-361 309.787v-331h331v75c0 8.284 6.716 15 15 15h75v62.33c-46.485-8.816-89 27.024-89 73.67 0 16.848 5.586 32.413 15 44.948v60.052zm415.51 30.647c-5.125-3.529-11.895-3.529-17.02 0l-21.49 14.805v-81.733c18.627 8.164 40.405 8.588 60 0v81.733z" data-original="#000000" class="active-path" data-old_color="#000000" fill="#C81217"/><path d="m91 150.991h15v16c0 8.284 6.716 15 15 15s15-6.716 15-15v-16h15c8.284 0 15-6.716 15-15s-6.716-15-15-15h-15v-14c0-8.284-6.716-15-15-15s-15 6.716-15 15v14h-15c-8.284 0-15 6.716-15 15s6.716 15 15 15z" data-original="#000000" class="active-path" data-old_color="#000000" fill="#C81217"/><path d="m316 271.991h-225c-8.284 0-15 6.716-15 15s6.716 15 15 15h225c8.284 0 15-6.716 15-15s-6.716-15-15-15z" data-original="#000000" class="active-path" data-old_color="#000000" fill="#C81217"/><path d="m316 211.991h-225c-8.284 0-15 6.716-15 15s6.716 15 15 15h225c8.284 0 15-6.716 15-15s-6.716-15-15-15z" data-original="#000000" class="active-path" data-old_color="#000000" fill="#C81217"/><path d="m316 331.991h-225c-8.284 0-15 6.716-15 15s6.716 15 15 15h225c8.284 0 15-6.716 15-15s-6.716-15-15-15z" data-original="#000000" class="active-path" data-old_color="#000000" fill="#C81217"/></g></g> </svg>
