<?xml version="1.0"?>
<svg xmlns="http://www.w3.org/2000/svg" xmlns:xlink="http://www.w3.org/1999/xlink" version="1.1" id="Capa_1" x="0px" y="0px" viewBox="0 0 469.342 469.342" style="enable-background:new 0 0 469.342 469.342;" xml:space="preserve" width="512px" height="512px"><g><g>
	<g>
		<g>
			<path d="M165.337,128h37.333c5.896,0,10.667-4.771,10.667-10.667s-4.771-10.667-10.667-10.667h-21.333V96     c0-5.896-4.771-10.667-10.667-10.667S160.004,90.104,160.004,96v11.206c-18.046,2.615-32,18.036-32,36.794     c0,20.583,16.75,37.333,37.333,37.333h10.667c8.813,0,16,7.177,16,16c0,8.823-7.188,16-16,16h-37.333     c-5.896,0-10.667,4.771-10.667,10.667c0,5.896,4.771,10.667,10.667,10.667h10.667v10.667c0,5.896,4.771,10.667,10.667,10.667     c5.896,0,10.667-4.771,10.667-10.667v-10.667h5.333c20.583,0,37.333-16.75,37.333-37.333c0-20.583-16.75-37.333-37.333-37.333     h-10.667c-8.813,0-16-7.177-16-16C149.337,135.177,156.525,128,165.337,128z" data-original="#000000" class="active-path" data-old_color="#000000" fill="#C81217"/>
			<path d="M465.817,365.406L326.278,239.82c9.813-21.952,15.06-45.124,15.06-69.154C341.337,76.563,264.775,0,170.671,0     S0.004,76.563,0.004,170.667s76.563,170.667,170.667,170.667c21.917,0,43.699-4.466,64-12.695v130.029     c0,4.313,2.604,8.208,6.583,9.854c4.021,1.667,8.583,0.75,11.646-2.323l54.917-55.073l28.271,52.594     c1.917,3.573,5.604,5.615,9.396,5.615c1.625,0,3.25-0.365,4.771-1.135l50.063-25.094c2.604-1.292,4.563-3.594,5.417-6.365     c0.854-2.771,0.563-5.771-0.833-8.313L380.421,384h78.25c4.417,0,8.375-2.719,9.958-6.844     C470.212,373.031,469.087,368.365,465.817,365.406z M234.671,305.273c-19.975,9.504-41.895,14.727-64,14.727     c-82.333,0-149.333-66.99-149.333-149.333s67-149.333,149.333-149.333s149.333,66.99,149.333,149.333     c0,18.695-3.603,36.82-10.418,54.132l-17.41-15.668c4.001-12.553,6.495-25.405,6.495-38.464c0-70.583-57.417-128-128-128     s-128,57.417-128,128s57.417,128,128,128c22.565,0,44.648-6.07,64-17.237V305.273z M252.483,173.406     c-3.146-2.823-7.646-3.521-11.479-1.813c-3.854,1.708-6.333,5.531-6.333,9.74v74.284c-18.415,13.872-40.852,21.716-64,21.716     c-58.812,0-106.667-47.854-106.667-106.667S111.858,64,170.671,64s106.667,47.854,106.667,106.667     c0,7.629-1.094,15.171-2.75,22.634L252.483,173.406z M362.379,362.667c-3.771,0-7.271,1.99-9.188,5.24     c-1.917,3.25-1.979,7.271-0.167,10.573l27.833,50.531l-30.896,15.479l-30.146-56.125c-1.604-2.969-4.5-5.01-7.854-5.5     c-0.521-0.073-1.021-0.115-1.542-0.115c-2.813,0-5.542,1.115-7.542,3.135l-46.875,46.979V205.281l174.875,157.385H362.379z" data-original="#000000" class="active-path" data-old_color="#000000" fill="#C81217"/>
		</g>
	</g>
</g></g> </svg>
